Coordinates
version=1
nRows=14
nColumns=24
inDegrees=yes

Units are S.I. units (second, meters, Newtons, ...)
Angles are in degrees.

endheader
time	pelvis_tilt	pelvis_list	pelvis_rotation	pelvis_tx	pelvis_ty	pelvis_tz	hip_flexion_r	hip_adduction_r	hip_rotation_r	knee_angle_r	ankle_angle_r	subtalar_angle_r	mtp_angle_r	hip_flexion_l	hip_adduction_l	hip_rotation_l	knee_angle_l	ankle_angle_l	subtalar_angle_l	mtp_angle_l	lumbar_extension	lumbar_bending	lumbar_rotation
      0.66683333	     -2.44584204	     -2.25457376	     -3.12254772	     -0.47657296	      1.06523786	      0.34507990	     14.17221969	      6.48407131	     -4.65677789	    -16.61939402	      5.55989424	     -2.51927203	      0.63936186	     18.56971527	     -3.46956575	     -2.45635805	    -68.29716823	      8.01350984	      1.47190646	      2.33498796	      5.63956392	      6.59589894	     -0.31992504
      0.67100000	     -2.40894030	     -2.19983234	     -3.11534088	     -0.47132950	      1.06597941	      0.34535210	     13.77218956	      6.42406166	     -4.65946241	    -16.52512923	      5.75852593	     -2.48595974	      0.63853375	     19.15835410	     -3.37013570	     -2.28436690	    -68.39805847	      8.45775536	      0.99648966	      2.33287691	      5.57594158	      6.56028176	     -0.24161628
      0.67516667	     -2.36918514	     -2.18464727	     -3.09522586	     -0.46618867	      1.06667251	      0.34585402	     13.35774299	      6.43422476	     -4.55987066	    -16.39302645	      5.87094886	     -2.43480439	      0.63836101	     19.74804990	     -3.34093465	     -2.10702042	    -68.44690159	      8.70920043	      0.69774229	      2.33016755	      5.50367698	      6.45748163	     -0.18450406
      0.67933333	     -2.33283257	     -2.12760698	     -3.09670437	     -0.46102786	      1.06735068	      0.34605841	     12.97425209	      6.36378641	     -4.59494734	    -16.32837235	      6.09255039	     -2.40002780	      0.63500497	     20.31720967	     -3.22996335	     -1.96305437	    -68.40536563	      9.15758544	      0.09632923	      2.32036912	      5.45076484	      6.44143793	     -0.09969177
      0.68350000	     -2.29867527	     -2.11073352	     -3.07946879	     -0.45583288	      1.06800076	      0.34649654	     12.56135383	      6.36471185	     -4.52614864	    -16.19056461	      6.22395459	     -2.33674402	      0.63256674	     20.87620972	     -3.19041633	     -1.81679503	    -68.29320786	      9.39287357	     -0.27500656	      2.31136672	      5.39446224	      6.35018942	     -0.03208015
      0.68766667	     -2.25645223	     -2.08353206	     -3.07047390	     -0.45065956	      1.06864282	      0.34682422	     12.14825171	      6.34233122	     -4.49063963	    -16.07724888	      6.39142270	     -2.29152318	      0.62885663	     21.40773288	     -3.12738833	     -1.67778068	    -68.08601860	      9.70247786	     -0.75254713	      2.29950850	      5.34193891	      6.29130176	      0.03962116
      0.69183333	     -2.21264784	     -2.05294133	     -3.06555342	     -0.44546956	      1.06925983	      0.34713634	     11.73354216	      6.31279956	     -4.46717397	    -15.96645842	      6.55844684	     -2.23433808	      0.62377697	     21.91549315	     -3.05864075	     -1.55601041	    -67.79709954	      9.96335838	     -1.23898371	      2.28356483	      5.28177771	      6.24439574	      0.11357610
      0.69600000	     -2.15321273	     -2.00982856	     -3.09108736	     -0.44035103	      1.06987025	      0.34735354	     11.31886438	      6.25886739	     -4.46185504	    -15.88035491	      6.75290922	     -2.05830437	      0.60389852	     22.38879910	     -2.97210247	     -1.47845607	    -67.41259269	     10.03449304	     -1.89754716	      2.23475079	      5.14603427	      6.25075133	      0.25035762
      0.70016667	     -2.11950564	     -1.99594861	     -3.07012196	     -0.43510875	      1.07041712	      0.34772720	     10.89646848	      6.25597556	     -4.41312037	    -15.73009963	      6.86806167	     -2.04459970	      0.59831546	     22.86933386	     -2.93011429	     -1.36007913	    -66.96597927	     10.26596043	     -2.15685108	      2.22296068	      5.15120517	      6.16924608	      0.30415775
      0.70433333	     -2.11510068	     -1.96608502	     -3.08001138	     -0.42991949	      1.07088541	      0.34796789	     10.52054359	      6.22293809	     -4.35561029	    -15.61074886	      6.94945309	     -2.03425875	      0.59540390	     23.35885821	     -2.86305884	     -1.25981074	    -66.42763795	     10.41713614	     -2.34005058	      2.21528595	      5.08821888	      6.16702104	      0.32518434
      0.70850000	     -2.05206660	     -1.98052289	     -3.05972360	     -0.42468197	      1.07140513	      0.34833827	     10.06201968	      6.25204557	     -4.33520839	    -15.45017646	      7.15587022	     -1.99966114	      0.58846278	     23.76925238	     -2.85310326	     -1.18175830	    -65.83429531	     10.72242687	     -2.84185477	      2.19512702	      5.10168080	      6.10782352	      0.39959874
      0.71266667	     -2.01301442	     -1.96447014	     -3.06941679	     -0.41946034	      1.07187142	      0.34856977	      9.64182801	      6.23322016	     -4.31138415	    -15.31966397	      7.33553604	     -1.93394448	      0.57798169	     24.17415801	     -2.80121573	     -1.12539354	    -65.13257496	     10.86918253	     -3.29914212	      2.16602929	      5.03912470	      6.10006264	      0.47278213
      0.71683333	     -1.97786695	     -1.94819868	     -3.09042631	     -0.41425784	      1.07229300	      0.34876927	      9.22955976	      6.21200095	     -4.28677497	    -15.19490947	      7.50365093	     -1.84133529	      0.56057330	     24.55955592	     -2.75118999	     -1.08699059	    -64.34400953	     10.93544865	     -3.73430645	      2.12354808	      4.95356700	      6.09146528	      0.56958250
      0.72100000	     -2.00500980	     -1.96339489	     -3.08731973	     -0.40906813	      1.07255225	      0.34899395	      8.87653374	      6.23419550	     -4.24230125	    -15.04408309	      7.55670875	     -1.82414692	      0.55722516	     25.00242851	     -2.73534150	     -1.01444172	    -63.50248577	     11.01131136	     -3.81682238	      2.11479957	      4.89422286	      6.12350594	      0.58275621
